<svg width="1338" height="500" viewBox="0 0 1338 500" fill="none" xmlns="http://www.w3.org/2000/svg">
<path d="M641.003 367V133.815H683.571V329.44H783.418V367H641.003ZM807.509 367V196.728H848.512V367H807.509ZM807.509 177.635V133.815H848.512V177.635H807.509ZM965.559 370.756C949.075 370.756 934.364 366.896 921.426 359.175C908.489 351.246 898.264 340.499 890.752 326.936C883.24 313.373 879.484 298.349 879.484 281.864C879.484 265.171 883.24 250.147 890.752 236.792C898.264 223.437 908.489 212.795 921.426 204.866C934.572 196.937 949.179 192.972 965.246 192.972C978.184 192.972 989.66 195.58 999.676 200.797C1009.9 205.805 1017.93 212.9 1023.78 222.081L1017.52 230.532V130.059H1058.52V367H1019.71V334.135L1024.09 342.273C1018.25 351.454 1010.11 358.549 999.676 363.557C989.243 368.356 977.871 370.756 965.559 370.756ZM969.941 333.196C979.331 333.196 987.574 331.005 994.668 326.623C1001.76 322.241 1007.29 316.19 1011.26 308.469C1015.43 300.748 1017.52 291.88 1017.52 281.864C1017.52 272.057 1015.43 263.293 1011.26 255.572C1007.29 247.643 1001.76 241.487 994.668 237.105C987.574 232.723 979.331 230.532 969.941 230.532C960.76 230.532 952.518 232.827 945.214 237.418C937.911 241.8 932.173 247.851 927.999 255.572C924.035 263.084 922.052 271.848 922.052 281.864C922.052 291.88 924.035 300.748 927.999 308.469C932.173 316.19 937.911 322.241 945.214 326.623C952.518 331.005 960.76 333.196 969.941 333.196ZM1096.67 367V196.728H1137.67V367H1096.67ZM1096.67 177.635V133.815H1137.67V177.635H1096.67ZM1227.17 370.756C1215.28 370.756 1204.95 368.774 1196.19 364.809C1187.42 360.844 1180.64 355.21 1175.84 347.907C1171.04 340.395 1168.64 331.735 1168.64 321.928C1168.64 312.538 1170.73 304.191 1174.9 296.888C1179.08 289.376 1185.54 283.116 1194.31 278.108C1203.07 273.1 1214.13 269.553 1227.49 267.466L1283.2 258.389V289.689L1235.31 297.827C1227.17 299.288 1221.12 301.896 1217.16 305.652C1213.19 309.408 1211.21 314.312 1211.21 320.363C1211.21 326.206 1213.4 330.901 1217.78 334.448C1222.37 337.787 1228.01 339.456 1234.69 339.456C1243.24 339.456 1250.75 337.682 1257.22 334.135C1263.9 330.379 1269.01 325.267 1272.56 318.798C1276.31 312.329 1278.19 305.235 1278.19 297.514V253.694C1278.19 246.391 1275.27 240.339 1269.43 235.54C1263.79 230.532 1256.28 228.028 1246.89 228.028C1238.13 228.028 1230.3 230.428 1223.42 235.227C1216.74 239.818 1211.84 245.973 1208.71 253.694L1175.22 237.418C1178.55 228.445 1183.77 220.725 1190.87 214.256C1198.17 207.579 1206.72 202.362 1216.53 198.606C1226.34 194.85 1236.98 192.972 1248.46 192.972C1262.44 192.972 1274.75 195.58 1285.39 200.797C1296.03 205.805 1304.28 212.9 1310.12 222.081C1316.17 231.054 1319.2 241.591 1319.2 253.694V367H1280.38V337.891L1289.15 337.265C1284.77 344.568 1279.55 350.724 1273.5 355.732C1267.45 360.531 1260.56 364.287 1252.84 367C1245.12 369.504 1236.56 370.756 1227.17 370.756Z" fill="url(#paint0_linear_54_299)"/>
<g clip-path="url(#clip0_54_299)">
<path d="M500 0H0V500H500V0Z" fill="url(#paint1_linear_54_299)"/>
<path d="M107.144 410.714V410.714C107.144 420.576 115.139 428.571 125.001 428.571H375.001C384.863 428.571 392.858 420.576 392.858 410.714C392.858 400.852 384.863 392.857 375.001 392.857H125.001C115.139 392.857 107.144 400.852 107.144 410.714Z" fill="white"/>
<path d="M125.001 71.4286H125.001C115.139 71.4286 107.144 79.4235 107.144 89.2857V410.715C107.144 420.577 115.139 428.572 125.001 428.572C134.863 428.572 142.858 420.577 142.858 410.715V89.2857C142.858 79.4235 134.863 71.4286 125.001 71.4286Z" fill="white"/>
<path d="M210.503 118.137L210.503 118.137C202.731 124.209 201.353 135.431 207.425 143.203L370.896 352.437C376.968 360.208 388.19 361.586 395.962 355.514C403.734 349.442 405.112 338.22 399.04 330.449L235.568 121.215C229.496 113.443 218.274 112.065 210.503 118.137Z" fill="white"/>
<path d="M178.57 107.143H178.57C168.708 107.143 160.713 115.138 160.713 125V357.143C160.713 367.005 168.708 375 178.57 375C188.432 375 196.427 367.005 196.427 357.143V125C196.427 115.138 188.432 107.143 178.57 107.143Z" fill="white"/>
<path d="M247.78 280.328L228.096 287.617" stroke="white" stroke-width="18"/>
<path d="M241.897 324.895L214.289 250.34C214.289 250.34 263.427 232.144 277.231 269.421C291.036 306.698 241.897 324.895 241.897 324.895Z" stroke="white" stroke-width="18"/>
</g>
<defs>
<linearGradient id="paint0_linear_54_299" x1="500" y1="42" x2="831.363" y2="709.505" gradientUnits="userSpaceOnUse">
<stop stop-color="#4737FF"/>
<stop offset="1" stop-color="#6EA4FC"/>
</linearGradient>
<linearGradient id="paint1_linear_54_299" x1="0" y1="0" x2="500" y2="500" gradientUnits="userSpaceOnUse">
<stop stop-color="#4737FF"/>
<stop offset="1" stop-color="#6EA4FC"/>
</linearGradient>
<clipPath id="clip0_54_299">
<rect width="500" height="500" rx="250" fill="white"/>
</clipPath>
</defs>
</svg>
