<svg width="20" height="20" viewBox="0 0 20 20" fill="none" xmlns="http://www.w3.org/2000/svg">
<path fill-rule="evenodd" clip-rule="evenodd" d="M2 6.99997H3.99978C4.00007 7.36652 4.20262 7.71932 4.55279 7.8944C5.04676 8.14139 5.64744 7.94117 5.89443 7.44719L6.11803 6.99997H13.882L14.1056 7.44719C14.3526 7.94117 14.9532 8.14139 15.4472 7.8944C15.7974 7.71932 15.9999 7.36652 16.0002 6.99997H18V8.99998H2V6.99997ZM15.118 4.99997H18C19.1046 4.99997 20 5.89541 20 6.99997V8.99998C20 9.84 19.4821 10.5591 18.7482 10.8553C18.7516 10.9031 18.7534 10.9513 18.7534 11C18.7534 11.1459 18.7374 11.2914 18.7058 11.4338L17.1502 18.4338C16.9469 19.3489 16.1352 20 15.1978 20H4.80217C3.86477 20 3.05315 19.3489 2.8498 18.4338L1.29424 11.4338C1.25095 11.239 1.23767 11.0445 1.25134 10.8551C0.517674 10.5588 0 9.83983 0 8.99998V6.99997C0 5.89541 0.89543 4.99997 2 4.99997H4.88197L7.10557 0.552761C7.35256 0.0587828 7.95323 -0.141442 8.44721 0.105548C8.94119 0.352537 9.14142 0.95321 8.89443 1.44719L7.11803 4.99997H12.882L11.1056 1.44719C10.8586 0.95321 11.0588 0.352537 11.5528 0.105548C12.0468 -0.141442 12.6474 0.0587828 12.8944 0.552761L15.118 4.99997ZM3.24662 11H16.7534L15.1978 18H4.80217L3.24662 11Z" fill="black"/>
</svg>
